<?xml version="1.0" encoding="UTF-8" standalone="no"?> <svg id="Layer_1" enable-background="new 0 0 512.165 512.165" height="512" viewBox="0 0 512.165 512.165" width="512" xmlns="http://www.w3.org/2000/svg"><g><g><path d="m122.772 390.568h75.621v-52.015h-75.621zm15-37.014h45.621v22.015h-45.621z"/><path d="m313.771 390.568h75.621v-52.015h-75.621zm15-37.014h45.621v22.015h-45.621z"/><path d="m212.9 346.858h86.364v15h-86.364z"/><path d="m212.9 373.077h86.364v15h-86.364z"/><path d="m445.703 400.837h-13.13v-53.216l-21.999-28.115h31.182v-46.833h-39.073l.005-70.286-12.021-19.185h-126.947v-3.657l17.602-17.603c20.409 3.926 41.586-2.544 56.255-17.212 15.771-15.771 21.99-38.978 16.229-60.565l-1.119-4.193-4.194-1.119c-21.589-5.762-44.796.457-60.565 16.229-14.725 14.725-21.119 35.935-17.213 56.255l-6.995 6.995v-49.906c17.131-11.606 27.608-31.125 27.608-51.949 0-22.304-12.013-43.111-31.352-54.302l-3.756-2.175-3.756 2.174c-19.338 11.19-31.351 31.998-31.351 54.302 0 20.826 10.476 40.344 27.607 51.949v49.906l-6.995-6.995c3.906-20.321-2.487-41.53-17.213-56.255-15.77-15.772-38.979-21.992-60.565-16.229l-4.194 1.119-1.119 4.193c-5.761 21.588.458 44.795 16.229 60.564 14.637 14.639 35.8 21.148 56.256 17.213l17.602 17.602v3.657h-127.266l-12.021 19.185-.002 70.286h-39.065v46.833h31.225l-21.999 28.115v53.216h-13.13v53.67h17.695v57.658h68.978v-57.658h167.847v-15h-239.521v-23.67h349.24v23.666l-94.72.004v15h27.613v57.658h68.978v-57.658h13.129v-53.668zm-105.442-308.44c4.718 28.025-15.901 54.334-45.004 55.611l13.779-13.78-10.606-10.607-13.779 13.78c1.277-29.132 27.62-49.718 55.61-45.004zm-168.081 0c28.027-4.722 54.335 15.907 55.61 45.003l-13.779-13.78-10.606 10.607 13.781 13.781c-29.096-1.271-49.726-27.585-45.006-55.611zm84.04-74.825c23.152 16.479 27.178 49.667 7.5 71.146v-19.487h-15v19.487c-19.662-21.464-15.671-54.652 7.5-71.146zm-118.085 479.593h-38.977v-42.658h38.978v42.658zm264.553-209.492h24.068v16.833h-24.068zm-278.253-80.976 5.323-8.495h252.606l5.323 8.495v8.119h-263.252zm-39.068 80.976h24.066v16.833h-24.066zm9.225 113.164v-48.044l26.045-33.286h36.835v-15h-33.038l-.002-74.687h263.25v74.687h-215.21v15h219.055l26.045 33.286v48.044zm322.982 96.328h-38.978v-42.658h38.978z"/></g><g><path d="m307.82 274.663h-15v-15h15zm-45 0h-15v-15h15zm-45 0h-15v-15h15z"/></g></g></svg>