<?xml version="1.0" encoding="iso-8859-1"?>
<!-- Generator: Adobe Illustrator 21.0.0, SVG Export Plug-In . SVG Version: 6.00 Build 0)  -->
<svg version="1.1" id="Capa_1" xmlns="http://www.w3.org/2000/svg" xmlns:xlink="http://www.w3.org/1999/xlink" x="0px" y="0px"
	 viewBox="0 0 512 512" style="enable-background:new 0 0 512 512;" xml:space="preserve">
<g id="XMLID_1137_">
	<g id="XMLID_1138_">
		<path style="fill:#93A3AF;" d="M412.588,158.133h-13.392V76.748h13.392c5.69,0,10.302,4.612,10.302,10.302v60.781
			C422.889,153.521,418.277,158.133,412.588,158.133z"/>
		<path style="fill:#93A3AF;" d="M99.412,251.879h13.392v-40.177H99.412c-5.69,0-10.302,4.612-10.302,10.302v19.573
			C89.111,247.267,93.723,251.879,99.412,251.879z"/>
		<path style="fill:#93A3AF;" d="M99.412,178.736h13.392V76.748H99.412c-5.69,0-10.302,4.612-10.302,10.302v81.384
			C89.111,174.124,93.723,178.736,99.412,178.736z"/>
		<path style="fill:#93A3AF;" d="M99.412,315.75h13.392v-40.177H99.412c-5.69,0-10.302,4.612-10.302,10.302v19.573
			C89.111,311.138,93.723,315.75,99.412,315.75z"/>
		<path style="fill:#7B8C98;" d="M110.145,491.396V20.604C110.145,9.225,119.37,0,130.749,0h250.502
			c11.379,0,20.604,9.225,20.604,20.604v470.793c0,11.379-9.225,20.604-20.604,20.604H130.749
			C119.37,512,110.145,502.775,110.145,491.396z"/>
		<path id="XMLID_1139_" style="fill:#627687;" d="M401.853,20.604v470.793c0,11.384-9.22,20.604-20.604,20.604h-20.171
			c11.383,0,20.604-9.22,20.604-20.604V20.604C381.682,9.22,372.462,0,361.078,0h20.171C392.633,0,401.853,9.22,401.853,20.604z"/>
		<rect x="110.145" y="52.024" style="fill:#7FB7EA;" width="291.709" height="407.952"/>
		<rect x="381.682" y="52.024" style="fill:#5F9EEB;" width="20.173" height="407.952"/>
		<path id="XMLID_1140_" style="fill:#627687;" d="M276.173,35.37h-40.345c-4.267,0-7.726-3.459-7.726-7.726
			s3.459-7.726,7.726-7.726h40.345c4.267,0,7.726,3.459,7.726,7.726S280.44,35.37,276.173,35.37z"/>
	</g>
	<path style="fill:#D3D8DF;" d="M343.928,315.75H168.072c-8.05,0-14.575-6.526-14.575-14.575v-23.388
		c0-8.05,6.526-14.575,14.575-14.575h175.855c8.05,0,14.575,6.526,14.575,14.575v23.388
		C358.503,309.225,351.977,315.75,343.928,315.75z"/>
	<path style="fill:#D3D8DF;" d="M343.928,396.105H168.072c-8.05,0-14.575-6.526-14.575-14.575v-23.388
		c0-8.05,6.526-14.575,14.575-14.575h175.855c8.05,0,14.575,6.526,14.575,14.575v23.388
		C358.503,389.579,351.977,396.105,343.928,396.105z"/>
	<path id="XMLID_1141_" style="fill:#3A82D0;" d="M189.04,297.208c-0.024,0-0.047,0-0.07,0l-0.113-0.001
		c-4.267-0.038-7.695-3.528-7.657-7.795c0.038-4.267,3.513-7.709,7.795-7.657l0.113,0.001c4.267,0.038,7.695,3.528,7.657,7.795
		C196.726,293.794,193.274,297.208,189.04,297.208z"/>
	<path id="XMLID_1142_" style="fill:#3A82D0;" d="M217.997,297.208c-0.024,0-0.047,0-0.07,0l-0.113-0.001
		c-4.267-0.038-7.695-3.528-7.657-7.795c0.038-4.267,3.545-7.709,7.795-7.657l0.113,0.001c4.267,0.038,7.695,3.528,7.657,7.795
		C225.684,293.794,222.232,297.208,217.997,297.208z"/>
	<path id="XMLID_1143_" style="fill:#3A82D0;" d="M246.956,297.208c-0.024,0-0.047,0-0.07,0l-0.113-0.001
		c-4.267-0.038-7.695-3.528-7.657-7.795c0.038-4.243,3.489-7.657,7.724-7.657c0.024,0,0.047,0,0.07,0l0.113,0.001
		c4.267,0.038,7.695,3.528,7.657,7.795C254.642,293.794,251.191,297.208,246.956,297.208z"/>
	<path id="XMLID_1144_" style="fill:#3A82D0;" d="M275.913,297.208c-0.024,0-0.047,0-0.07,0l-0.113-0.001
		c-4.267-0.038-7.695-3.528-7.657-7.795c0.038-4.267,3.521-7.709,7.795-7.657l0.113,0.001c4.267,0.038,7.695,3.528,7.657,7.795
		C283.6,293.794,280.148,297.208,275.913,297.208z"/>
	<path id="XMLID_1145_" style="fill:#3A82D0;" d="M304.871,297.208c-0.024,0-0.047,0-0.07,0l-0.113-0.001
		c-4.267-0.038-7.695-3.528-7.657-7.795c0.038-4.267,3.554-7.709,7.795-7.657l0.113,0.001c4.267,0.038,7.695,3.528,7.657,7.795
		C312.558,293.794,309.106,297.208,304.871,297.208z"/>
	<path id="XMLID_1146_" style="fill:#3A82D0;" d="M189.04,377.562c-0.024,0-0.047,0-0.07,0l-0.113-0.001
		c-4.267-0.038-7.695-3.528-7.657-7.795c0.038-4.243,3.49-7.657,7.724-7.657c0.024,0,0.047,0,0.07,0l0.113,0.001
		c4.267,0.038,7.695,3.528,7.657,7.795C196.726,374.148,193.274,377.562,189.04,377.562z"/>
	<path id="XMLID_1147_" style="fill:#3A82D0;" d="M217.997,377.562c-0.024,0-0.047,0-0.07,0l-0.113-0.001
		c-4.267-0.038-7.695-3.528-7.657-7.795c0.038-4.243,3.49-7.657,7.724-7.657c0.024,0,0.047,0,0.07,0l0.113,0.001
		c4.267,0.038,7.695,3.528,7.657,7.795C225.684,374.148,222.232,377.562,217.997,377.562z"/>
	<path id="XMLID_1148_" style="fill:#3A82D0;" d="M246.956,377.562c-0.024,0-0.047,0-0.07,0l-0.113-0.001
		c-4.267-0.038-7.695-3.528-7.657-7.795c0.038-4.243,3.489-7.657,7.724-7.657c0.024,0,0.047,0,0.07,0l0.113,0.001
		c4.267,0.038,7.695,3.528,7.657,7.795C254.642,374.148,251.191,377.562,246.956,377.562z"/>
	<g id="XMLID_1149_">
		<path id="XMLID_1150_" style="fill:#74E2CD;" d="M300.813,171.783c0,5.429-0.968,10.632-2.74,15.453
			c-6.294,17.132-22.757,29.36-42.073,29.36s-35.778-12.228-42.073-29.36c-1.772-4.821-2.74-10.024-2.74-15.453
			c0-24.755,20.068-44.813,44.813-44.813C280.745,126.97,300.813,147.027,300.813,171.783z"/>
		<path id="XMLID_1151_" style="fill:#EB5777;" d="M298.073,187.235c-6.294,17.132-22.757,29.36-42.073,29.36
			s-35.778-12.228-42.073-29.36c6.294-17.142,22.757-29.36,42.073-29.36S291.778,170.093,298.073,187.235z"/>
		<g id="XMLID_1152_">
			<circle style="fill:#F8C298;" cx="256" cy="139.074" r="24.724"/>
		</g>
	</g>
</g>
<g>
</g>
<g>
</g>
<g>
</g>
<g>
</g>
<g>
</g>
<g>
</g>
<g>
</g>
<g>
</g>
<g>
</g>
<g>
</g>
<g>
</g>
<g>
</g>
<g>
</g>
<g>
</g>
<g>
</g>
</svg>
